<svg xmlns="http://www.w3.org/2000/svg" viewBox="0 0 50 50"><defs><style>.cls-1{fill:#fff;}</style></defs><title>Asset 2</title><g id="Layer_2" data-name="Layer 2"><g id="Layer_1-2" data-name="Layer 1"><path class="cls-1" d="M4.47,39.27a25,25,0,1,0-3-22.68H13.18a2.07,2.07,0,0,1,2.06,2.06h0a2.07,2.07,0,0,1-2.06,2.06H.37A25.26,25.26,0,0,0,0,25q0,.64,0,1.29H19a2.05,2.05,0,0,1,2.05,2.05h0A2.05,2.05,0,0,1,19,30.4H.59a24.7,24.7,0,0,0,1.56,4.75H13.94A2.07,2.07,0,0,1,16,37.21h0a2.07,2.07,0,0,1-2.06,2.06Zm13.67-2.06a2.07,2.07,0,0,1,2.06-2.06h3.85a2.07,2.07,0,0,1,2.06,2.06h0a2.07,2.07,0,0,1-2.06,2.06H20.2a2.07,2.07,0,0,1-2.06-2.06Z"/></g></g></svg>
