<svg xmlns="http://www.w3.org/2000/svg" viewBox="0 0 457.5 232.74"><defs><style>.cls-1,.cls-3{fill:#4d4d4d;}.cls-1,.cls-2,.cls-5,.cls-6{stroke:#4d4d4d;stroke-miterlimit:10;}.cls-1,.cls-2,.cls-5{stroke-width:5px;}.cls-2,.cls-4{fill:#fff;}.cls-5,.cls-6{fill:none;}.cls-6{stroke-width:2px;}</style></defs><title>illustration</title><g id="Layer_2" data-name="Layer 2"><g id="Layer_1-2" data-name="Layer 1"><rect class="cls-1" x="141" y="21.2" width="314" height="196.54" rx="12" ry="12"/><rect class="cls-2" x="134.5" y="20.74" width="314" height="196.54" rx="12" ry="12"/><path class="cls-2" d="M134,178.8H448a0,0,0,0,1,0,0v26a12,12,0,0,1-12,12H146a12,12,0,0,1-12-12v-26A0,0,0,0,1,134,178.8Z"/><rect class="cls-1" x="197" y="39.24" width="167" height="124" rx="12" ry="12"/><path class="cls-2" d="M204.25,38.24h152.5A7.25,7.25,0,0,1,364,45.49V55a7.25,7.25,0,0,1-7.25,7.25H201.13A4.13,4.13,0,0,1,197,58.11V45.49A7.25,7.25,0,0,1,204.25,38.24Z"/><circle class="cls-3" cx="231" cy="50.24" r="4.5"/><circle class="cls-3" cx="209.73" cy="50.24" r="4.5"/><circle class="cls-4" cx="209" cy="70.24" r="3.5"/><circle class="cls-4" cx="209" cy="79.24" r="3.5"/><circle class="cls-4" cx="209" cy="88.24" r="3.5"/><circle class="cls-4" cx="209" cy="97.24" r="3.5"/><circle class="cls-4" cx="209" cy="106.24" r="3.5"/><circle class="cls-4" cx="209" cy="115.24" r="3.5"/><circle class="cls-3" cx="220.36" cy="50.24" r="4.5"/><rect class="cls-4" x="216.5" y="66.74" width="38" height="6" rx="3" ry="3"/><rect class="cls-4" x="216.5" y="75.74" width="34" height="6" rx="3" ry="3"/><rect class="cls-4" x="252.5" y="75.74" width="50" height="6" rx="3" ry="3"/><rect class="cls-4" x="256.5" y="84.74" width="38" height="6" rx="3" ry="3"/><rect class="cls-4" x="238.5" y="93.74" width="20" height="6" rx="3" ry="3"/><rect class="cls-4" x="296.5" y="84.74" width="20" height="6" rx="3" ry="3"/><rect class="cls-4" x="265.5" y="103.74" width="20" height="6" rx="3" ry="3"/><rect class="cls-4" x="260.5" y="93.74" width="31" height="6" rx="3" ry="3"/><rect class="cls-4" x="227.5" y="103.74" width="36" height="6" rx="3" ry="3"/><rect class="cls-4" x="235.5" y="112.74" width="47" height="6" rx="3" ry="3"/><rect class="cls-4" x="284.5" y="112.74" width="47" height="6" rx="3" ry="3"/><rect class="cls-4" x="216.5" y="112.74" width="17" height="6" rx="3" ry="3"/><ellipse class="cls-5" cx="55.86" cy="36.12" rx="14.16" ry="37.94" transform="translate(-10.58 32.77) rotate(-30)"/><ellipse class="cls-5" cx="54.57" cy="36.12" rx="37.94" ry="14.16" transform="translate(-3.99 65.32) rotate(-60)"/><ellipse class="cls-5" cx="55.86" cy="34.83" rx="37.94" ry="14.16"/><circle class="cls-3" cx="55.35" cy="34.42" r="5.81"/><rect class="cls-2" x="2.5" y="160.74" width="91" height="24" rx="3" ry="3"/><path class="cls-2" d="M13.83,185.24H82.17a.83.83,0,0,1,.83.83v36.17a8,8,0,0,1-8,8H21a8,8,0,0,1-8-8V186.07A.83.83,0,0,1,13.83,185.24Z"/><path class="cls-2" d="M75.09,160.24V108.78a18,18,0,0,0-36.09,0v51.46Z"/><path class="cls-2" d="M47,160.24v-38.5a13.5,13.5,0,0,0-27,0v38.5Z"/><line class="cls-5" x1="75" y1="116.24" x2="85" y2="115.24"/><line class="cls-5" x1="75" y1="132.24" x2="85" y2="131.24"/><line class="cls-5" x1="71" y1="97.24" x2="82" y2="90.24"/><line class="cls-5" x1="43" y1="97.24" x2="33" y2="95.24"/><line class="cls-5" x1="24" y1="111.24" x2="20" y2="104.24"/><line class="cls-5" x1="20" y1="139.24" x2="11" y2="138.24"/><line class="cls-5" x1="47" y1="128.24" x2="55" y2="119.24"/><line class="cls-5" x1="47" y1="143.24" x2="55" y2="143.24"/><line class="cls-5" x1="76" y1="151.24" x2="85" y2="149.24"/><circle class="cls-6" cx="30" cy="128.24" r="1.5"/><circle class="cls-6" cx="38" cy="118.24" r="1.5"/><circle class="cls-6" cx="37" cy="140.24" r="1.5"/><circle class="cls-6" cx="63" cy="104.24" r="1.5"/><circle class="cls-6" cx="59" cy="112.24" r="1.5"/><circle class="cls-6" cx="67" cy="113.24" r="1.5"/></g></g></svg>