<svg xmlns="http://www.w3.org/2000/svg" viewBox="0 0 1435.62 755.72"><defs><style>.cls-1{opacity:0.25;}</style></defs><title>particles</title><g id="Layer_2" data-name="Layer 2"><g id="Layer_1-2" data-name="Layer 1"><g class="cls-1"><path d="M199.35,113.14l20.2,20.21-20.2,20.2-20.21-20.2,20.21-20.21m0-14.14L165,133.35l34.35,34.35,34.35-34.35L199.35,99Z"/></g><g class="cls-1"><path d="M877.35,14.14l20.2,20.21-20.2,20.2-20.21-20.2,20.21-20.21m0-14.14L843,34.35,877.35,68.7,911.7,34.35,877.35,0Z"/></g><g class="cls-1"><path d="M34.35,612.14l20.2,20.21-20.2,20.2-20.21-20.2,20.21-20.21m0-14.14L0,632.35,34.35,666.7,68.7,632.35,34.35,598Z"/></g><g class="cls-1"><path d="M1345.82,709.07l6.81,27.75-27.75,6.81-6.81-27.75,27.75-6.81m7.33-12.1L1306,708.55l11.58,47.17,47.17-11.57L1353.15,697Z"/></g><g class="cls-1"><path d="M769.82,339.07l6.81,27.75-27.75,6.81-6.81-27.75,27.75-6.81m7.33-12.1L730,338.55l11.58,47.17,47.17-11.57L777.15,327Z"/></g><g class="cls-1"><path d="M1069.28,347.36l27.49,7.8-7.8,27.49-27.49-7.8,7.8-27.49M1062.39,335l-13.26,46.73L1095.86,395l13.26-46.73L1062.39,335Z"/></g><g class="cls-1"><path d="M439.63,537.85a16,16,0,1,1-16,16,16,16,0,0,1,16-16m0-10a26,26,0,1,0,26,26,26,26,0,0,0-26-26Z"/></g><g class="cls-1"><path d="M1343.63,142.85a16,16,0,1,1-16,16,16,16,0,0,1,16-16m0-10a26,26,0,1,0,26,26,26,26,0,0,0-26-26Z"/></g><g class="cls-1"><path d="M60.63,313.85a16,16,0,1,1-16,16,16,16,0,0,1,16-16m0-10a26,26,0,1,0,26,26,26,26,0,0,0-26-26Z"/></g><g class="cls-1"><path d="M528.63,12.85a16,16,0,1,1-16,16,16,16,0,0,1,16-16m0-10a26,26,0,1,0,26,26,26,26,0,0,0-26-26Z"/></g><g class="cls-1"><path d="M953.63,661.85a16,16,0,1,1-16,16,16,16,0,0,1,16-16m0-10a26,26,0,1,0,26,26,26,26,0,0,0-26-26Z"/></g><g class="cls-1"><path d="M402.07,291.21l23,21-29.69,9.46,6.65-30.44m-6.07-19L382,336.44l62.7-20L396,272.16Z"/></g><g class="cls-1"><path d="M603.56,687l30.77,4.89-19.62,24.21L603.56,687M588,674.43l23.55,61.44L653,684.76l-65-10.33Z"/></g><g class="cls-1"><path d="M1095.25,151l-13.12,28.26-17.91-25.49,31-2.77m16.37-11.5-65.54,5.85,37.83,53.83,27.71-59.68Z"/></g><g class="cls-1"><path d="M1419.25,535l-13.12,28.26-17.91-25.49,31-2.77m16.37-11.5-65.54,5.85,37.83,53.83,27.71-59.68Z"/></g></g></g></svg>