<svg xmlns="http://www.w3.org/2000/svg" viewBox="0 0 402 402"><defs><style>.cls-1{fill:#fff;}</style></defs><title>lg</title><g id="Layer_2" data-name="Layer 2"><g id="Layer_1-2" data-name="Layer 1"><path class="cls-1" d="M35.92,315.7A200.77,200.77,0,0,0,201,402c111,0,201-90,201-201S312,0,201,0A201.08,201.08,0,0,0,11.65,133.41H106a16.58,16.58,0,0,1,16.53,16.53h0A16.58,16.58,0,0,1,106,166.48H3A202.45,202.45,0,0,0,0,201c0,3.47.09,6.93.26,10.36H152.73a16.58,16.58,0,0,1,16.53,16.53h0a16.58,16.58,0,0,1-16.53,16.54H4.71a199.38,199.38,0,0,0,12.56,38.19h94.81a16.59,16.59,0,0,1,16.54,16.54h0a16.58,16.58,0,0,1-16.54,16.54Zm110-16.54a16.59,16.59,0,0,1,16.53-16.54h31a16.59,16.59,0,0,1,16.54,16.54h0a16.58,16.58,0,0,1-16.54,16.54h-31a16.58,16.58,0,0,1-16.53-16.54Z"/></g></g></svg>